<svg xmlns="http://www.w3.org/2000/svg" width="800" height="360" viewBox="0 0 800 360" fill="none"><g font-family="ui-monospace, SFMono-Regular, Consolas, monospace"><text x="28" y="35" font-size="21" fill="#a6b2c5" >Separate implementations</text><text x="480" y="35" font-size="21" fill="#a997ff" >One shared definition</text><text x="28" y="80" font-size="19" fill="#edf1f7" >Android</text><rect x="28" y="102" width="174" height="38" rx="5" fill="#111722" stroke="#354254"/><text x="40" y="127" font-size="16" fill="#a6b2c5" >Transport</text><rect x="28" y="150" width="174" height="38" rx="5" fill="#111722" stroke="#354254"/><text x="40" y="175" font-size="16" fill="#a6b2c5" >Serialization</text><rect x="28" y="198" width="174" height="38" rx="5" fill="#111722" stroke="#354254"/><text x="40" y="223" font-size="16" fill="#a6b2c5" >Models</text><rect x="28" y="246" width="174" height="38" rx="5" fill="#111722" stroke="#354254"/><text x="40" y="271" font-size="16" fill="#a6b2c5" >Error mapping</text><text x="228" y="80" font-size="19" fill="#edf1f7" >iOS</text><rect x="228" y="102" width="174" height="38" rx="5" fill="#111722" stroke="#354254"/><text x="240" y="127" font-size="16" fill="#a6b2c5" >Transport</text><rect x="228" y="150" width="174" height="38" rx="5" fill="#111722" stroke="#354254"/><text x="240" y="175" font-size="16" fill="#a6b2c5" >Serialization</text><rect x="228" y="198" width="174" height="38" rx="5" fill="#111722" stroke="#354254"/><text x="240" y="223" font-size="16" fill="#a6b2c5" >Models</text><rect x="228" y="246" width="174" height="38" rx="5" fill="#111722" stroke="#354254"/><text x="240" y="271" font-size="16" fill="#a6b2c5" >Error mapping</text><path d="M438 60V330" fill="none" stroke="#354254" stroke-width="2"/><rect x="544" y="68" width="174" height="48" rx="5" fill="#111722" stroke="#354254"/><text x="600" y="99" font-size="20" fill="#a997ff" >.cra</text><path d="M630 116V158" fill="none" stroke="#a997ff" stroke-width="2"/><rect x="492" y="158" width="276" height="66" rx="5" fill="#111e30" stroke="#78b8ff"/><text x="517" y="198" font-size="19" fill="#78b8ff" >Crossa native runtime</text><path d="M630 224V259H531V292M630 259H727V292" fill="none" stroke="#78b8ff" stroke-width="2"/><text x="489" y="320" font-size="18" fill="#edf1f7" >Android</text><text x="706" y="320" font-size="18" fill="#edf1f7" >iOS</text></g></svg>
