<svg xmlns="http://www.w3.org/2000/svg" width="360" height="490" viewBox="0 0 360 490" fill="none"><g font-family="ui-monospace, SFMono-Regular, Consolas, monospace"><text x="16" y="30" font-size="19" fill="#a6b2c5" >Without Crossa</text><text x="24" y="68" font-size="17" fill="#edf1f7" >Android</text><text x="205" y="68" font-size="17" fill="#edf1f7" >iOS</text><rect x="16" y="86" width="154" height="31" rx="5" fill="#111722" stroke="#354254"/><text x="26" y="107" font-size="14" fill="#a6b2c5" >Transport</text><rect x="190" y="86" width="154" height="31" rx="5" fill="#111722" stroke="#354254"/><text x="200" y="107" font-size="14" fill="#a6b2c5" >Transport</text><rect x="16" y="124" width="154" height="31" rx="5" fill="#111722" stroke="#354254"/><text x="26" y="145" font-size="14" fill="#a6b2c5" >Serialization</text><rect x="190" y="124" width="154" height="31" rx="5" fill="#111722" stroke="#354254"/><text x="200" y="145" font-size="14" fill="#a6b2c5" >Serialization</text><rect x="16" y="162" width="154" height="31" rx="5" fill="#111722" stroke="#354254"/><text x="26" y="183" font-size="14" fill="#a6b2c5" >Models</text><rect x="190" y="162" width="154" height="31" rx="5" fill="#111722" stroke="#354254"/><text x="200" y="183" font-size="14" fill="#a6b2c5" >Models</text><rect x="16" y="200" width="154" height="31" rx="5" fill="#111722" stroke="#354254"/><text x="26" y="221" font-size="14" fill="#a6b2c5" >Errors</text><rect x="190" y="200" width="154" height="31" rx="5" fill="#111722" stroke="#354254"/><text x="200" y="221" font-size="14" fill="#a6b2c5" >Errors</text><path d="M90 238V263H180M267 238V263H180V298" fill="none" stroke="#a997ff" stroke-width="2"/><text x="16" y="290" font-size="16" fill="#a997ff" >With Crossa</text><rect x="64" y="311" width="232" height="68" rx="5" fill="#111e30" stroke="#78b8ff"/><text x="152" y="336" font-size="16" fill="#a997ff" >.cra</text><text x="85" y="363" font-size="16" fill="#78b8ff" >Crossa native runtime</text><path d="M180 379V407H80V436M180 407H280V436" fill="none" stroke="#78b8ff" stroke-width="2"/><text x="41" y="460" font-size="18" fill="#edf1f7" >Android</text><text x="265" y="460" font-size="18" fill="#edf1f7" >iOS</text></g></svg>
