<svg xmlns="http://www.w3.org/2000/svg" width="640" height="630" viewBox="0 0 640 630" fill="none"><g font-family="ui-monospace, SFMono-Regular, Consolas, monospace"><rect x="94" y="20" width="452" height="160" rx="5" fill="#111722" stroke="#354254"/><text x="116" y="47" font-size="13" fill="#a6b2c5" >postsRepository.cra</text><path d="M94 62H546" fill="none" stroke="#354254" stroke-width="2"/><text x="116" y="88" font-size="15" fill="#a997ff" >@AsyncAfter</text><text x="116" y="111" font-size="15" fill="#edf1f7" >fun getPosts(): List&lt;Post&gt; {</text><text x="132" y="134" font-size="15" fill="#edf1f7" >re fetchPosts()</text><text x="116" y="157" font-size="15" fill="#edf1f7" >}</text><path d="M320 180V225" fill="none" stroke="#a997ff" stroke-width="2"/><rect x="136" y="225" width="368" height="66" rx="5" fill="#111722" stroke="#354254"/><text x="162" y="253" font-size="17" fill="#a997ff" >CROSSA COMPILER</text><text x="162" y="278" font-size="15" fill="#a6b2c5" >Parse → Validate → Typed IR</text><path d="M320 291V327" fill="none" stroke="#78b8ff" stroke-width="2"/><rect x="104" y="327" width="432" height="103" rx="5" fill="#111e30" stroke="#78b8ff"/><text x="128" y="361" font-size="23" fill="#78b8ff" >Native C++ runtime</text><text x="128" y="389" font-size="16" fill="#edf1f7" >Schedule · HTTP · Decode</text><text x="128" y="412" font-size="16" fill="#a6b2c5" >Models · Errors · Lifecycle</text><path d="M320 430V464H154V501M320 464H486V501" fill="none" stroke="#78b8ff" stroke-width="2"/><rect x="22" y="501" width="280" height="104" rx="5" fill="#111722" stroke="#354254"/><rect x="338" y="501" width="280" height="104" rx="5" fill="#111722" stroke="#354254"/><text x="42" y="533" font-size="20" fill="#ffb27f" >Android .aar</text><text x="42" y="562" font-size="15" fill="#a6b2c5" >Kotlin API → JNI → .so</text><text x="358" y="533" font-size="20" fill="#78b8ff" >iOS .xcframework</text><text x="358" y="562" font-size="15" fill="#a6b2c5" >Swift API → C ABI</text><text x="42" y="590" font-size="15" fill="#edf1f7" >Your Android UI</text><text x="358" y="590" font-size="15" fill="#edf1f7" >Your iOS UI</text></g></svg>
